# xmcd CD database file
#
# Track frame offsets:
#	150
#	19078
#	35350
#	56207
#	69939
#	96225
#	115692
#	131754
#	156483
#	170599
#	190262
#	212128
#
# Disc length: 3121 seconds
#
# Revision: 0
# Processed by: cddbd v1.5.1PL2 Copyright (c) Steve Scherf et al.
# Submitted via: CDex 1.40Beta9
#
DISCID=ab0c2f0c
DTITLE=Mark Knopfler  Emmylou Harris - Beyond My Wildest Dreams
DYEAR=2006
DGENRE=Country
TTITLE0=Beachcombing
TTITLE1=Dug Up A Diamond
TTITLE2=This Is Us
TTITLE3=Red Staggerwing
TTITLE4=Rollin' On
TTITLE5=Love And Happiness
TTITLE6=Right Now
TTITLE7=Donkey Town
TTITLE8=Belle Starr
TTITLE9=Beyond My Wildest Dreams
TTITLE10=All The Roadrunning
TTITLE11=If This Goodbye
EXTD=YEAR: 2006 ID3G: 2
EXTT0=
EXTT1=
EXTT2=
EXTT3=
EXTT4=
EXTT5=
EXTT6=
EXTT7=
EXTT8=
EXTT9=
EXTT10=
EXTT11=
PLAYORDER=
